<?xml version="1.0" encoding="UTF-8" standalone="no"?>
<svg
   version="1.1"
   id="svg2"
   height="512"
   width="512"
   viewBox="0 0 512 512"
   xml:space="preserve"
   xmlns:xlink="http://www.w3.org/1999/xlink"
   xmlns="http://www.w3.org/2000/svg"
   xmlns:svg="http://www.w3.org/2000/svg"
   xmlns:rdf="http://www.w3.org/1999/02/22-rdf-syntax-ns#"
   xmlns:cc="http://creativecommons.org/ns#"
   xmlns:dc="http://purl.org/dc/elements/1.1/"><title
     id="title1">Funky Square Dance Icon</title><defs
     id="defs4"><linearGradient
       id="linearGradient2"
       y2="44.984001"
       gradientUnits="userSpaceOnUse"
       x2="19.360001"
       y1="21.030804"
       x1="19.244999"><stop
         id="stop1"
         style="stop-color:#035d97;stop-opacity:1;"
         offset="0" /><stop
         id="stop2"
         style="stop-color:#3e87ff;stop-opacity:1;"
         offset="1" /></linearGradient><linearGradient
       y2="20.625916"
       x2="1006.8082"
       y1="484.41721"
       x1="1012.5133"
       gradientTransform="matrix(1.0317796,0,0,1.0317796,-830.86406,592.67791)"
       gradientUnits="userSpaceOnUse"
       id="linearGradient4114-2-6"
       xlink:href="#ButtonShadow-0-1-1-5-9" /><linearGradient
       gradientTransform="matrix(1.0058652,0,0,0.994169,100,0)"
       gradientUnits="userSpaceOnUse"
       id="ButtonShadow-0-1-1-5-9"
       y2="7.0165396"
       x2="45.447727"
       y1="92.539597"
       x1="45.447727"><stop
         offset="0"
         style="stop-color:#000000;stop-opacity:1"
         id="stop3750-8-9-3-6-4" /><stop
         offset="1"
         style="stop-color:#000000;stop-opacity:0.58823532"
         id="stop3752-5-6-4-2-9" /></linearGradient><linearGradient
       y2="20.625916"
       x2="1006.8082"
       y1="484.41721"
       x1="1012.5133"
       gradientTransform="matrix(1.0402541,0,0,1.0402541,-837.95116,592.51825)"
       gradientUnits="userSpaceOnUse"
       id="linearGradient4112-2-6"
       xlink:href="#ButtonShadow-0-1-1-5-9" /><linearGradient
       y2="20.625916"
       x2="1006.8082"
       y1="484.41721"
       x1="1012.5133"
       gradientTransform="matrix(1.023305,0,0,1.023305,-823.77704,592.83757)"
       gradientUnits="userSpaceOnUse"
       id="linearGradient4110-6-7"
       xlink:href="#ButtonShadow-0-1-1-5-9" /><linearGradient
       y2="20.625916"
       x2="1006.8082"
       y1="484.41721"
       x1="1012.5133"
       gradientTransform="matrix(1.0148305,0,0,1.0148305,-816.68996,592.99723)"
       gradientUnits="userSpaceOnUse"
       id="linearGradient4116-6-3"
       xlink:href="#ButtonShadow-0-1-1-5-9" /><linearGradient
       xlink:href="#ButtonShadow-0-1-1-5-9"
       id="linearGradient5342-3"
       gradientUnits="userSpaceOnUse"
       gradientTransform="matrix(1.0074153,0,0,1.0074153,-810.48879,593.1369)"
       x1="1012.5133"
       y1="484.41721"
       x2="1006.8082"
       y2="20.625916" /><linearGradient
       id="linearGradient3737-9"><stop
         offset="0"
         style="stop-color:#ffffff;stop-opacity:1"
         id="stop3739-7" /><stop
         offset="1"
         style="stop-color:#ffffff;stop-opacity:0"
         id="stop3741-4" /></linearGradient><linearGradient
       id="linearGradient4046-3"><stop
         offset="0"
         style="stop-color:#000000;stop-opacity:1;"
         id="stop4048-7" /><stop
         offset="1"
         style="stop-color:#ffffff;stop-opacity:0.2"
         id="stop4050-73" /></linearGradient><linearGradient
       xlink:href="#linearGradient2"
       id="linearGradient3157"
       gradientUnits="userSpaceOnUse"
       gradientTransform="matrix(12.593166,0,0,12.595674,-56.579947,-68.883849)"
       x1="18.930269"
       y1="6.2951212"
       x2="19.360001"
       y2="36.643665" /><linearGradient
       y2="363.73825"
       x2="988.78552"
       y1="51.511765"
       x1="993.43896"
       gradientTransform="translate(778.59979,-360.55963)"
       gradientUnits="userSpaceOnUse"
       id="linearGradient4084-8-7"
       xlink:href="#linearGradient3737-9" /><linearGradient
       y2="-55.941216"
       x2="1763.6903"
       y1="155.59685"
       x1="1764.6487"
       gradientUnits="userSpaceOnUse"
       id="linearGradient4086-12-3"
       xlink:href="#linearGradient4046-3" /></defs><metadata
     id="metadata7"><rdf:RDF><cc:Work
         rdf:about=""><dc:format>image/svg+xml</dc:format><dc:type
           rdf:resource="http://purl.org/dc/dcmitype/StillImage" /><cc:license
           rdf:resource="http://creativecommons.org/licenses/by/4.0/" /><dc:date>27/11/24</dc:date><dc:creator><cc:Agent><dc:title>Simon Greer</dc:title></cc:Agent></dc:creator><dc:source>https://simongreer.co.uk/projects/funkysquaredance</dc:source><dc:description>based on FlatWoken by alecive</dc:description><dc:title>Funky Square Dance Icon</dc:title></cc:Work><cc:License
         rdf:about="http://creativecommons.org/licenses/by/4.0/"><cc:permits
           rdf:resource="http://creativecommons.org/ns#Reproduction" /><cc:permits
           rdf:resource="http://creativecommons.org/ns#Distribution" /><cc:requires
           rdf:resource="http://creativecommons.org/ns#Notice" /><cc:requires
           rdf:resource="http://creativecommons.org/ns#Attribution" /><cc:permits
           rdf:resource="http://creativecommons.org/ns#DerivativeWorks" /></cc:License></rdf:RDF></metadata><g
     transform="matrix(1.040537,0,0,1.0404569,-33.18536,-636.74592)"
     id="g4103"
     style="display:inline"><rect
       style="color:#000000;display:inline;overflow:visible;visibility:visible;opacity:0.1;fill:url(#linearGradient4114-2-6);fill-opacity:1;fill-rule:nonzero;stroke:none;stroke-width:1.5;marker:none;enable-background:accumulate"
       id="rect6187"
       width="487"
       height="487"
       x="31.985071"
       y="612.11719"
       ry="101.45834" /><rect
       ry="102.29167"
       y="612.11719"
       x="31.985071"
       height="491"
       width="491"
       id="rect6191"
       style="color:#000000;display:inline;overflow:visible;visibility:visible;opacity:0.08;fill:url(#linearGradient4112-2-6);fill-opacity:1;fill-rule:nonzero;stroke:none;stroke-width:1.5;marker:none;enable-background:accumulate" /><rect
       ry="100.62501"
       y="612.11719"
       x="31.985071"
       height="483"
       width="483"
       id="rect6183"
       style="color:#000000;display:inline;overflow:visible;visibility:visible;opacity:0.2;fill:url(#linearGradient4110-6-7);fill-opacity:1;fill-rule:nonzero;stroke:none;stroke-width:1.5;marker:none;enable-background:accumulate" /><rect
       style="color:#000000;display:inline;overflow:visible;visibility:visible;opacity:0.25;fill:url(#linearGradient4116-6-3);fill-opacity:1;fill-rule:nonzero;stroke:none;stroke-width:1.5;marker:none;enable-background:accumulate"
       id="rect6179"
       width="479"
       height="479"
       x="31.985071"
       y="612.11719"
       ry="99.791664" /><rect
       ry="99.0625"
       y="612.11719"
       x="31.985071"
       height="475.5"
       width="475.5"
       id="rect5574"
       style="color:#000000;display:inline;overflow:visible;visibility:visible;opacity:0.25;fill:url(#linearGradient5342-3);fill-opacity:1;fill-rule:nonzero;stroke:none;stroke-width:1.5;marker:none;enable-background:accumulate" /></g><path
     id="rect5505"
     d="M 102.42661,0 C 45.741623,0 0.09629285,45.654418 0.09629285,102.35069 v 24.00218 262.52776 c 0,56.69626 45.64533015,102.35069 102.33031715,102.35069 h 286.47287 c 56.68499,0 102.33032,-45.65443 102.33032,-102.35069 V 126.35287 102.35069 C 491.2298,45.654418 445.58447,0 388.89948,0 Z"
     style="display:inline;fill:url(#linearGradient3157);stroke:none;stroke-width:1.04063" /><g
     id="g4038-9-6"
     transform="matrix(1.040537,0,0,1.0407444,-1615.0117,323.06388)"
     style="display:inline"><path
       id="rect6809-2-3-1"
       d="m 1650.4994,-310.41615 c -54.4767,0 -98.3125,43.83583 -98.3125,98.3125 V 63.240097 c 0,54.476673 43.8358,98.343753 98.3125,98.343753 h 2.9375 c -53.3225,0 -91.4499,-42.60693 -91.4499,-95.929432 V -203.84558 c 0,-53.3225 39.2662,-87.57001 92.5887,-87.57001 h 269.5001 c 53.3225,0 91.1033,32.94416 91.2817,86.26636 l 0.8996,268.855192 c 0.1785,53.322208 -39.9976,97.877888 -93.3201,97.877888 h 2.9062 c 54.4767,0 98.3438,-43.86708 98.3438,-98.343753 V -212.10365 c 0,-54.47667 -43.8671,-98.3125 -98.3438,-98.3125 z"
       style="color:#000000;display:inline;overflow:visible;visibility:visible;opacity:0.145191;fill:url(#linearGradient4084-8-7);fill-opacity:1;fill-rule:nonzero;stroke:none;stroke-width:1.5;marker:none;enable-background:accumulate" /><path
       style="color:#000000;display:inline;overflow:visible;visibility:visible;opacity:0.2;fill:url(#linearGradient4086-12-3);fill-opacity:1;fill-rule:nonzero;stroke:none;stroke-width:1.5;marker:none;enable-background:accumulate"
       d="m 1650.4994,161.58385 c -54.4767,0 -98.3125,-43.83583 -98.3125,-98.312503 V -212.0724 c 0,-54.47667 43.8358,-98.34375 98.3125,-98.34375 h 2.9375 c -53.3225,0 -91.7042,43.65846 -91.7225,96.98096 l -0.093,270.416042 c -0.018,53.322508 40.1747,82.481468 93.4972,82.481468 h 269.5001 c 53.3225,0 92.1773,-30.88586 91.9328,-84.207802 l -1.2279,-267.784188 c -0.2445,-53.32194 -39.0642,-97.88648 -92.3867,-97.88648 h 2.9062 c 54.4767,0 98.3438,43.86708 98.3438,98.34375 V 63.271347 c 0,54.476673 -43.8671,98.312503 -98.3438,98.312503 z"
       id="path3981-7-8" /></g><g
     id="g70"><path
       id="path47"
       style="display:inline;opacity:1;fill:#000000;fill-opacity:0.263158;stroke-width:0.665153"
       d="m 81.841797,71.660156 c -16.916725,-0.25575 -29.845703,9.856412 -29.845703,39.351564 0,11.78 6.754997,98.96705 10.716797,113.12305 4.3974,15.716 12.50985,27.6947 22.96875,36.4707 l 38.800779,32.55859 c -37.147857,19.99534 -40.542743,53.18749 -8.18945,86.38672 4.336,4.448 8.54014,8.36411 12.61914,11.78711 l 92.86719,77.92383 12.71484,21.96875 h 154.40625 c 56.68499,0 102.33008,-45.65335 102.33008,-102.34961 V 141.89062 L 483.13672,125.0293 426.49805,77.503906 c -17.02,-14.2818 -49.66799,-1.75e-4 -72.33399,17.015625 -33.56108,25.194449 -69.01468,70.012119 -91.8125,105.962889 L 144.26758,101.39844 c -2.89,-2.425005 -5.77549,-4.723609 -8.64649,-6.878909 h -0.002 C 119.66269,82.539781 98.758522,71.915906 81.841797,71.660156 Z M 292.35547,271.00781 391.375,354.0957 c -3.62481,8.3356 -9.54086,16.89299 -17.88477,25.45508 -12.24296,12.56284 -23.44318,20.85497 -33.67968,25.81641 l -54.08594,-45.38281 c -2.20372,-25.19935 -3.91406,-50.20966 -3.91406,-56.13672 0,-16.47228 4.03779,-26.88793 10.54492,-32.83985 z" /><path
       d="m 135.62186,94.5196 c 44.23,33.20509 91.80439,100.53118 109.2713,136.66228 17.46824,-36.12843 65.03997,-103.45786 109.2713,-136.66228 31.91403,-23.959472 83.623,-42.497942 83.623,16.49246 0,11.78118 -6.75463,98.96808 -10.71627,113.12253 -13.77066,49.21066 -63.95045,61.76209 -108.58619,54.16538 78.02242,13.27912 97.87058,57.26434 55.00614,101.24956 -81.40805,83.53654 -117.00702,-20.95963 -126.13292,-47.73536 -1.6722,-4.90863 -2.45468,-7.20493 -2.46619,-5.25231 -0.0116,-1.95269 -0.79399,0.34368 -2.46619,5.25231 -9.1219,26.77573 -44.72021,131.27455 -126.13291,47.73536 C 73.427821,335.56431 93.275315,291.57642 171.29906,278.29997 126.662,285.89668 76.481542,273.34519 62.712879,224.13459 58.751094,209.97881 51.9966,122.79192 51.9966,111.01206 c 0,-58.990402 51.71031,-40.451932 83.62301,-16.49246 z"
       fill="#1185fe"
       id="path1"
       style="opacity:1;fill:#ffffff;fill-opacity:1;stroke-width:0.665153" /></g></svg>
